<svg width="292" height="24" viewBox="0 0 292 24" fill="none" xmlns="http://www.w3.org/2000/svg">
<path d="M14.1172 8.92969V10.0078C14.1172 11.2891 13.957 12.4375 13.6367 13.4531C13.3164 14.4688 12.8555 15.332 12.2539 16.043C11.6523 16.7539 10.9297 17.2969 10.0859 17.6719C9.25 18.0469 8.3125 18.2344 7.27344 18.2344C6.26562 18.2344 5.33984 18.0469 4.49609 17.6719C3.66016 17.2969 2.93359 16.7539 2.31641 16.043C1.70703 15.332 1.23438 14.4688 0.898438 13.4531C0.5625 12.4375 0.394531 11.2891 0.394531 10.0078V8.92969C0.394531 7.64844 0.558594 6.50391 0.886719 5.49609C1.22266 4.48047 1.69531 3.61719 2.30469 2.90625C2.91406 2.1875 3.63672 1.64062 4.47266 1.26562C5.31641 0.890625 6.24219 0.703125 7.25 0.703125C8.28906 0.703125 9.22656 0.890625 10.0625 1.26562C10.9062 1.64062 11.6289 2.1875 12.2305 2.90625C12.8398 3.61719 13.3047 4.48047 13.625 5.49609C13.9531 6.50391 14.1172 7.64844 14.1172 8.92969ZM11.8789 10.0078V8.90625C11.8789 7.89062 11.7734 6.99219 11.5625 6.21094C11.3594 5.42969 11.0586 4.77344 10.6602 4.24219C10.2617 3.71094 9.77344 3.30859 9.19531 3.03516C8.625 2.76172 7.97656 2.625 7.25 2.625C6.54688 2.625 5.91016 2.76172 5.33984 3.03516C4.77734 3.30859 4.29297 3.71094 3.88672 4.24219C3.48828 4.77344 3.17969 5.42969 2.96094 6.21094C2.74219 6.99219 2.63281 7.89062 2.63281 8.90625V10.0078C2.63281 11.0312 2.74219 11.9375 2.96094 12.7266C3.17969 13.5078 3.49219 14.168 3.89844 14.707C4.3125 15.2383 4.80078 15.6406 5.36328 15.9141C5.93359 16.1875 6.57031 16.3242 7.27344 16.3242C8.00781 16.3242 8.66016 16.1875 9.23047 15.9141C9.80078 15.6406 10.2812 15.2383 10.6719 14.707C11.0703 14.168 11.3711 13.5078 11.5742 12.7266C11.7773 11.9375 11.8789 11.0312 11.8789 10.0078ZM16.0156 16.8516C16.0156 16.4844 16.1289 16.1758 16.3555 15.9258C16.5898 15.668 16.9258 15.5391 17.3633 15.5391C17.8008 15.5391 18.1328 15.668 18.3594 15.9258C18.5938 16.1758 18.7109 16.4844 18.7109 16.8516C18.7109 17.2109 18.5938 17.5156 18.3594 17.7656C18.1328 18.0156 17.8008 18.1406 17.3633 18.1406C16.9258 18.1406 16.5898 18.0156 16.3555 17.7656C16.1289 17.5156 16.0156 17.2109 16.0156 16.8516ZM28.9531 2.44922L23.3047 18H20.9961L27.5 0.9375H28.9883L28.9531 2.44922ZM33.6875 18L28.0273 2.44922L27.9922 0.9375H29.4805L36.0078 18H33.6875ZM33.3945 11.6836V13.5352H23.8086V11.6836H33.3945ZM38 16.8516C38 16.4844 38.1133 16.1758 38.3398 15.9258C38.5742 15.668 38.9102 15.5391 39.3477 15.5391C39.7852 15.5391 40.1172 15.668 40.3438 15.9258C40.5781 16.1758 40.6953 16.4844 40.6953 16.8516C40.6953 17.2109 40.5781 17.5156 40.3438 17.7656C40.1172 18.0156 39.7852 18.1406 39.3477 18.1406C38.9102 18.1406 38.5742 18.0156 38.3398 17.7656C38.1133 17.5156 38 17.2109 38 16.8516ZM49.2383 18H45.6758L45.6992 16.1602H49.2383C50.457 16.1602 51.4727 15.9062 52.2852 15.3984C53.0977 14.8828 53.707 14.1641 54.1133 13.2422C54.5273 12.3125 54.7344 11.2266 54.7344 9.98438V8.94141C54.7344 7.96484 54.6172 7.09766 54.3828 6.33984C54.1484 5.57422 53.8047 4.92969 53.3516 4.40625C52.8984 3.875 52.3438 3.47266 51.6875 3.19922C51.0391 2.92578 50.293 2.78906 49.4492 2.78906H45.6055V0.9375H49.4492C50.5664 0.9375 51.5859 1.125 52.5078 1.5C53.4297 1.86719 54.2227 2.40234 54.8867 3.10547C55.5586 3.80078 56.0742 4.64453 56.4336 5.63672C56.793 6.62109 56.9727 7.73047 56.9727 8.96484V9.98438C56.9727 11.2188 56.793 12.332 56.4336 13.3242C56.0742 14.3086 55.5547 15.1484 54.875 15.8438C54.2031 16.5391 53.3906 17.0742 52.4375 17.4492C51.4922 17.8164 50.4258 18 49.2383 18ZM46.8828 0.9375V18H44.6211V0.9375H46.8828ZM58.8828 16.8516C58.8828 16.4844 58.9961 16.1758 59.2227 15.9258C59.457 15.668 59.793 15.5391 60.2305 15.5391C60.668 15.5391 61 15.668 61.2266 15.9258C61.4609 16.1758 61.5781 16.4844 61.5781 16.8516C61.5781 17.2109 61.4609 17.5156 61.2266 17.7656C61 18.0156 60.668 18.1406 60.2305 18.1406C59.793 18.1406 59.457 18.0156 59.2227 17.7656C58.9961 17.5156 58.8828 17.2109 58.8828 16.8516ZM77.5391 10.0195H73.2148L73.1914 8.20312H77.1172C77.7656 8.20312 78.332 8.09375 78.8164 7.875C79.3008 7.65625 79.6758 7.34375 79.9414 6.9375C80.2148 6.52344 80.3516 6.03125 80.3516 5.46094C80.3516 4.83594 80.2305 4.32812 79.9883 3.9375C79.7539 3.53906 79.3906 3.25 78.8984 3.07031C78.4141 2.88281 77.7969 2.78906 77.0469 2.78906H73.7188V18H71.457V0.9375H77.0469C77.9219 0.9375 78.7031 1.02734 79.3906 1.20703C80.0781 1.37891 80.6602 1.65234 81.1367 2.02734C81.6211 2.39453 81.9883 2.86328 82.2383 3.43359C82.4883 4.00391 82.6133 4.6875 82.6133 5.48438C82.6133 6.1875 82.4336 6.82422 82.0742 7.39453C81.7148 7.95703 81.2148 8.41797 80.5742 8.77734C79.9414 9.13672 79.1992 9.36719 78.3477 9.46875L77.5391 10.0195ZM77.4336 18H72.3242L73.6016 16.1602H77.4336C78.1523 16.1602 78.7617 16.0352 79.2617 15.7852C79.7695 15.5352 80.1562 15.1836 80.4219 14.7305C80.6875 14.2695 80.8203 13.7266 80.8203 13.1016C80.8203 12.4688 80.707 11.9219 80.4805 11.4609C80.2539 11 79.8984 10.6445 79.4141 10.3945C78.9297 10.1445 78.3047 10.0195 77.5391 10.0195H74.3164L74.3398 8.20312H78.7461L79.2266 8.85938C80.0469 8.92969 80.7422 9.16406 81.3125 9.5625C81.8828 9.95312 82.3164 10.4531 82.6133 11.0625C82.918 11.6719 83.0703 12.3438 83.0703 13.0781C83.0703 14.1406 82.8359 15.0391 82.3672 15.7734C81.9062 16.5 81.2539 17.0547 80.4102 17.4375C79.5664 17.8125 78.5742 18 77.4336 18ZM91.3438 18.2344C90.4609 18.2344 89.6602 18.0859 88.9414 17.7891C88.2305 17.4844 87.6172 17.0586 87.1016 16.5117C86.5938 15.9648 86.2031 15.3164 85.9297 14.5664C85.6562 13.8164 85.5195 12.9961 85.5195 12.1055V11.6133C85.5195 10.582 85.6719 9.66406 85.9766 8.85938C86.2812 8.04688 86.6953 7.35938 87.2188 6.79688C87.7422 6.23438 88.3359 5.80859 89 5.51953C89.6641 5.23047 90.3516 5.08594 91.0625 5.08594C91.9688 5.08594 92.75 5.24219 93.4062 5.55469C94.0703 5.86719 94.6133 6.30469 95.0352 6.86719C95.457 7.42188 95.7695 8.07812 95.9727 8.83594C96.1758 9.58594 96.2773 10.4062 96.2773 11.2969V12.2695H86.8086V10.5H94.1094V10.3359C94.0781 9.77344 93.9609 9.22656 93.7578 8.69531C93.5625 8.16406 93.25 7.72656 92.8203 7.38281C92.3906 7.03906 91.8047 6.86719 91.0625 6.86719C90.5703 6.86719 90.1172 6.97266 89.7031 7.18359C89.2891 7.38672 88.9336 7.69141 88.6367 8.09766C88.3398 8.50391 88.1094 9 87.9453 9.58594C87.7812 10.1719 87.6992 10.8477 87.6992 11.6133V12.1055C87.6992 12.707 87.7812 13.2734 87.9453 13.8047C88.1172 14.3281 88.3633 14.7891 88.6836 15.1875C89.0117 15.5859 89.4062 15.8984 89.8672 16.125C90.3359 16.3516 90.8672 16.4648 91.4609 16.4648C92.2266 16.4648 92.875 16.3086 93.4062 15.9961C93.9375 15.6836 94.4023 15.2656 94.8008 14.7422L96.1133 15.7852C95.8398 16.1992 95.4922 16.5938 95.0703 16.9688C94.6484 17.3438 94.1289 17.6484 93.5117 17.8828C92.9023 18.1172 92.1797 18.2344 91.3438 18.2344ZM106.191 14.6367C106.191 14.3242 106.121 14.0352 105.98 13.7695C105.848 13.4961 105.57 13.25 105.148 13.0312C104.734 12.8047 104.109 12.6094 103.273 12.4453C102.57 12.2969 101.934 12.1211 101.363 11.918C100.801 11.7148 100.32 11.4688 99.9219 11.1797C99.5312 10.8906 99.2305 10.5508 99.0195 10.1602C98.8086 9.76953 98.7031 9.3125 98.7031 8.78906C98.7031 8.28906 98.8125 7.81641 99.0312 7.37109C99.2578 6.92578 99.5742 6.53125 99.9805 6.1875C100.395 5.84375 100.891 5.57422 101.469 5.37891C102.047 5.18359 102.691 5.08594 103.402 5.08594C104.418 5.08594 105.285 5.26562 106.004 5.625C106.723 5.98438 107.273 6.46484 107.656 7.06641C108.039 7.66016 108.23 8.32031 108.23 9.04688H106.062C106.062 8.69531 105.957 8.35547 105.746 8.02734C105.543 7.69141 105.242 7.41406 104.844 7.19531C104.453 6.97656 103.973 6.86719 103.402 6.86719C102.801 6.86719 102.312 6.96094 101.938 7.14844C101.57 7.32812 101.301 7.55859 101.129 7.83984C100.965 8.12109 100.883 8.41797 100.883 8.73047C100.883 8.96484 100.922 9.17578 101 9.36328C101.086 9.54297 101.234 9.71094 101.445 9.86719C101.656 10.0156 101.953 10.1562 102.336 10.2891C102.719 10.4219 103.207 10.5547 103.801 10.6875C104.84 10.9219 105.695 11.2031 106.367 11.5312C107.039 11.8594 107.539 12.2617 107.867 12.7383C108.195 13.2148 108.359 13.793 108.359 14.4727C108.359 15.0273 108.242 15.5352 108.008 15.9961C107.781 16.457 107.449 16.8555 107.012 17.1914C106.582 17.5195 106.066 17.7773 105.465 17.9648C104.871 18.1445 104.203 18.2344 103.461 18.2344C102.344 18.2344 101.398 18.0352 100.625 17.6367C99.8516 17.2383 99.2656 16.7227 98.8672 16.0898C98.4688 15.457 98.2695 14.7891 98.2695 14.0859H100.449C100.48 14.6797 100.652 15.1523 100.965 15.5039C101.277 15.8477 101.66 16.0938 102.113 16.2422C102.566 16.3828 103.016 16.4531 103.461 16.4531C104.055 16.4531 104.551 16.375 104.949 16.2188C105.355 16.0625 105.664 15.8477 105.875 15.5742C106.086 15.3008 106.191 14.9883 106.191 14.6367ZM116.516 5.32031V6.98438H109.66V5.32031H116.516ZM111.98 2.23828H114.148V14.8594C114.148 15.2891 114.215 15.6133 114.348 15.832C114.48 16.0508 114.652 16.1953 114.863 16.2656C115.074 16.3359 115.301 16.3711 115.543 16.3711C115.723 16.3711 115.91 16.3555 116.105 16.3242C116.309 16.2852 116.461 16.2539 116.562 16.2305L116.574 18C116.402 18.0547 116.176 18.1055 115.895 18.1523C115.621 18.207 115.289 18.2344 114.898 18.2344C114.367 18.2344 113.879 18.1289 113.434 17.918C112.988 17.707 112.633 17.3555 112.367 16.8633C112.109 16.3633 111.98 15.6914 111.98 14.8477V2.23828ZM134.434 13.6875C134.434 13.2891 134.371 12.9375 134.246 12.6328C134.129 12.3203 133.918 12.0391 133.613 11.7891C133.316 11.5391 132.902 11.3008 132.371 11.0742C131.848 10.8477 131.184 10.6172 130.379 10.3828C129.535 10.1328 128.773 9.85547 128.094 9.55078C127.414 9.23828 126.832 8.88281 126.348 8.48438C125.863 8.08594 125.492 7.62891 125.234 7.11328C124.977 6.59766 124.848 6.00781 124.848 5.34375C124.848 4.67969 124.984 4.06641 125.258 3.50391C125.531 2.94141 125.922 2.45312 126.43 2.03906C126.945 1.61719 127.559 1.28906 128.27 1.05469C128.98 0.820312 129.773 0.703125 130.648 0.703125C131.93 0.703125 133.016 0.949219 133.906 1.44141C134.805 1.92578 135.488 2.5625 135.957 3.35156C136.426 4.13281 136.66 4.96875 136.66 5.85938H134.41C134.41 5.21875 134.273 4.65234 134 4.16016C133.727 3.66016 133.312 3.26953 132.758 2.98828C132.203 2.69922 131.5 2.55469 130.648 2.55469C129.844 2.55469 129.18 2.67578 128.656 2.91797C128.133 3.16016 127.742 3.48828 127.484 3.90234C127.234 4.31641 127.109 4.78906 127.109 5.32031C127.109 5.67969 127.184 6.00781 127.332 6.30469C127.488 6.59375 127.727 6.86328 128.047 7.11328C128.375 7.36328 128.789 7.59375 129.289 7.80469C129.797 8.01562 130.402 8.21875 131.105 8.41406C132.074 8.6875 132.91 8.99219 133.613 9.32812C134.316 9.66406 134.895 10.043 135.348 10.4648C135.809 10.8789 136.148 11.3516 136.367 11.8828C136.594 12.4062 136.707 13 136.707 13.6641C136.707 14.3594 136.566 14.9883 136.285 15.5508C136.004 16.1133 135.602 16.5938 135.078 16.9922C134.555 17.3906 133.926 17.6992 133.191 17.918C132.465 18.1289 131.652 18.2344 130.754 18.2344C129.965 18.2344 129.188 18.125 128.422 17.9062C127.664 17.6875 126.973 17.3594 126.348 16.9219C125.73 16.4844 125.234 15.9453 124.859 15.3047C124.492 14.6562 124.309 13.9062 124.309 13.0547H126.559C126.559 13.6406 126.672 14.1445 126.898 14.5664C127.125 14.9805 127.434 15.3242 127.824 15.5977C128.223 15.8711 128.672 16.0742 129.172 16.207C129.68 16.332 130.207 16.3945 130.754 16.3945C131.543 16.3945 132.211 16.2852 132.758 16.0664C133.305 15.8477 133.719 15.5352 134 15.1289C134.289 14.7227 134.434 14.2422 134.434 13.6875ZM144.523 18.2344C143.641 18.2344 142.84 18.0859 142.121 17.7891C141.41 17.4844 140.797 17.0586 140.281 16.5117C139.773 15.9648 139.383 15.3164 139.109 14.5664C138.836 13.8164 138.699 12.9961 138.699 12.1055V11.6133C138.699 10.582 138.852 9.66406 139.156 8.85938C139.461 8.04688 139.875 7.35938 140.398 6.79688C140.922 6.23438 141.516 5.80859 142.18 5.51953C142.844 5.23047 143.531 5.08594 144.242 5.08594C145.148 5.08594 145.93 5.24219 146.586 5.55469C147.25 5.86719 147.793 6.30469 148.215 6.86719C148.637 7.42188 148.949 8.07812 149.152 8.83594C149.355 9.58594 149.457 10.4062 149.457 11.2969V12.2695H139.988V10.5H147.289V10.3359C147.258 9.77344 147.141 9.22656 146.938 8.69531C146.742 8.16406 146.43 7.72656 146 7.38281C145.57 7.03906 144.984 6.86719 144.242 6.86719C143.75 6.86719 143.297 6.97266 142.883 7.18359C142.469 7.38672 142.113 7.69141 141.816 8.09766C141.52 8.50391 141.289 9 141.125 9.58594C140.961 10.1719 140.879 10.8477 140.879 11.6133V12.1055C140.879 12.707 140.961 13.2734 141.125 13.8047C141.297 14.3281 141.543 14.7891 141.863 15.1875C142.191 15.5859 142.586 15.8984 143.047 16.125C143.516 16.3516 144.047 16.4648 144.641 16.4648C145.406 16.4648 146.055 16.3086 146.586 15.9961C147.117 15.6836 147.582 15.2656 147.98 14.7422L149.293 15.7852C149.02 16.1992 148.672 16.5938 148.25 16.9688C147.828 17.3438 147.309 17.6484 146.691 17.8828C146.082 18.1172 145.359 18.2344 144.523 18.2344ZM154.344 0V18H152.164V0H154.344ZM160.18 0V18H158V0H160.18ZM166.016 5.32031V18H163.836V5.32031H166.016ZM163.672 1.95703C163.672 1.60547 163.777 1.30859 163.988 1.06641C164.207 0.824219 164.527 0.703125 164.949 0.703125C165.363 0.703125 165.68 0.824219 165.898 1.06641C166.125 1.30859 166.238 1.60547 166.238 1.95703C166.238 2.29297 166.125 2.58203 165.898 2.82422C165.68 3.05859 165.363 3.17578 164.949 3.17578C164.527 3.17578 164.207 3.05859 163.988 2.82422C163.777 2.58203 163.672 2.29297 163.672 1.95703ZM171.664 8.02734V18H169.496V5.32031H171.547L171.664 8.02734ZM171.148 11.1797L170.246 11.1445C170.254 10.2773 170.383 9.47656 170.633 8.74219C170.883 8 171.234 7.35547 171.688 6.80859C172.141 6.26172 172.68 5.83984 173.305 5.54297C173.938 5.23828 174.637 5.08594 175.402 5.08594C176.027 5.08594 176.59 5.17188 177.09 5.34375C177.59 5.50781 178.016 5.77344 178.367 6.14062C178.727 6.50781 179 6.98438 179.188 7.57031C179.375 8.14844 179.469 8.85547 179.469 9.69141V18H177.289V9.66797C177.289 9.00391 177.191 8.47266 176.996 8.07422C176.801 7.66797 176.516 7.375 176.141 7.19531C175.766 7.00781 175.305 6.91406 174.758 6.91406C174.219 6.91406 173.727 7.02734 173.281 7.25391C172.844 7.48047 172.465 7.79297 172.145 8.19141C171.832 8.58984 171.586 9.04688 171.406 9.5625C171.234 10.0703 171.148 10.6094 171.148 11.1797ZM190.977 5.32031H192.945V17.7305C192.945 18.8477 192.719 19.8008 192.266 20.5898C191.812 21.3789 191.18 21.9766 190.367 22.3828C189.562 22.7969 188.633 23.0039 187.578 23.0039C187.141 23.0039 186.625 22.9336 186.031 22.793C185.445 22.6602 184.867 22.4297 184.297 22.1016C183.734 21.7812 183.262 21.3477 182.879 20.8008L184.016 19.5117C184.547 20.1523 185.102 20.5977 185.68 20.8477C186.266 21.0977 186.844 21.2227 187.414 21.2227C188.102 21.2227 188.695 21.0938 189.195 20.8359C189.695 20.5781 190.082 20.1953 190.355 19.6875C190.637 19.1875 190.777 18.5703 190.777 17.8359V8.10938L190.977 5.32031ZM182.246 11.8008V11.5547C182.246 10.5859 182.359 9.70703 182.586 8.91797C182.82 8.12109 183.152 7.4375 183.582 6.86719C184.02 6.29688 184.547 5.85938 185.164 5.55469C185.781 5.24219 186.477 5.08594 187.25 5.08594C188.047 5.08594 188.742 5.22656 189.336 5.50781C189.938 5.78125 190.445 6.18359 190.859 6.71484C191.281 7.23828 191.613 7.87109 191.855 8.61328C192.098 9.35547 192.266 10.1953 192.359 11.1328V12.2109C192.273 13.1406 192.105 13.9766 191.855 14.7188C191.613 15.4609 191.281 16.0938 190.859 16.6172C190.445 17.1406 189.938 17.543 189.336 17.8242C188.734 18.0977 188.031 18.2344 187.227 18.2344C186.469 18.2344 185.781 18.0742 185.164 17.7539C184.555 17.4336 184.031 16.9844 183.594 16.4062C183.156 15.8281 182.82 15.1484 182.586 14.3672C182.359 13.5781 182.246 12.7227 182.246 11.8008ZM184.414 11.5547V11.8008C184.414 12.4336 184.477 13.0273 184.602 13.582C184.734 14.1367 184.934 14.625 185.199 15.0469C185.473 15.4688 185.82 15.8008 186.242 16.043C186.664 16.2773 187.168 16.3945 187.754 16.3945C188.473 16.3945 189.066 16.2422 189.535 15.9375C190.004 15.6328 190.375 15.2305 190.648 14.7305C190.93 14.2305 191.148 13.6875 191.305 13.1016V10.2773C191.219 9.84766 191.086 9.43359 190.906 9.03516C190.734 8.62891 190.508 8.26953 190.227 7.95703C189.953 7.63672 189.613 7.38281 189.207 7.19531C188.801 7.00781 188.324 6.91406 187.777 6.91406C187.184 6.91406 186.672 7.03906 186.242 7.28906C185.82 7.53125 185.473 7.86719 185.199 8.29688C184.934 8.71875 184.734 9.21094 184.602 9.77344C184.477 10.3281 184.414 10.9219 184.414 11.5547ZM204.371 0V18H202.191V0H204.371ZM212.117 5.32031L206.586 11.2383L203.492 14.4492L203.316 12.1406L205.531 9.49219L209.469 5.32031H212.117ZM210.137 18L205.613 11.9531L206.738 10.0195L212.691 18H210.137ZM216.523 8.02734V18H214.355V5.32031H216.406L216.523 8.02734ZM216.008 11.1797L215.105 11.1445C215.113 10.2773 215.242 9.47656 215.492 8.74219C215.742 8 216.094 7.35547 216.547 6.80859C217 6.26172 217.539 5.83984 218.164 5.54297C218.797 5.23828 219.496 5.08594 220.262 5.08594C220.887 5.08594 221.449 5.17188 221.949 5.34375C222.449 5.50781 222.875 5.77344 223.227 6.14062C223.586 6.50781 223.859 6.98438 224.047 7.57031C224.234 8.14844 224.328 8.85547 224.328 9.69141V18H222.148V9.66797C222.148 9.00391 222.051 8.47266 221.855 8.07422C221.66 7.66797 221.375 7.375 221 7.19531C220.625 7.00781 220.164 6.91406 219.617 6.91406C219.078 6.91406 218.586 7.02734 218.141 7.25391C217.703 7.48047 217.324 7.79297 217.004 8.19141C216.691 8.58984 216.445 9.04688 216.266 9.5625C216.094 10.0703 216.008 10.6094 216.008 11.1797ZM229.977 5.32031V18H227.797V5.32031H229.977ZM227.633 1.95703C227.633 1.60547 227.738 1.30859 227.949 1.06641C228.168 0.824219 228.488 0.703125 228.91 0.703125C229.324 0.703125 229.641 0.824219 229.859 1.06641C230.086 1.30859 230.199 1.60547 230.199 1.95703C230.199 2.29297 230.086 2.58203 229.859 2.82422C229.641 3.05859 229.324 3.17578 228.91 3.17578C228.488 3.17578 228.168 3.05859 227.949 2.82422C227.738 2.58203 227.633 2.29297 227.633 1.95703ZM238.766 5.32031V6.98438H231.91V5.32031H238.766ZM234.23 2.23828H236.398V14.8594C236.398 15.2891 236.465 15.6133 236.598 15.832C236.73 16.0508 236.902 16.1953 237.113 16.2656C237.324 16.3359 237.551 16.3711 237.793 16.3711C237.973 16.3711 238.16 16.3555 238.355 16.3242C238.559 16.2852 238.711 16.2539 238.812 16.2305L238.824 18C238.652 18.0547 238.426 18.1055 238.145 18.1523C237.871 18.207 237.539 18.2344 237.148 18.2344C236.617 18.2344 236.129 18.1289 235.684 17.918C235.238 17.707 234.883 17.3555 234.617 16.8633C234.359 16.3633 234.23 15.6914 234.23 14.8477V2.23828ZM244.52 15.75L247.777 5.32031H249.207L248.926 7.39453L245.609 18H244.215L244.52 15.75ZM242.328 5.32031L245.105 15.8672L245.305 18H243.84L240.16 5.32031H242.328ZM252.324 15.7852L254.973 5.32031H257.129L253.449 18H251.996L252.324 15.7852ZM249.523 5.32031L252.711 15.5742L253.074 18H251.691L248.281 7.37109L248 5.32031H249.523ZM264.617 18.2344C263.734 18.2344 262.934 18.0859 262.215 17.7891C261.504 17.4844 260.891 17.0586 260.375 16.5117C259.867 15.9648 259.477 15.3164 259.203 14.5664C258.93 13.8164 258.793 12.9961 258.793 12.1055V11.6133C258.793 10.582 258.945 9.66406 259.25 8.85938C259.555 8.04688 259.969 7.35938 260.492 6.79688C261.016 6.23438 261.609 5.80859 262.273 5.51953C262.938 5.23047 263.625 5.08594 264.336 5.08594C265.242 5.08594 266.023 5.24219 266.68 5.55469C267.344 5.86719 267.887 6.30469 268.309 6.86719C268.73 7.42188 269.043 8.07812 269.246 8.83594C269.449 9.58594 269.551 10.4062 269.551 11.2969V12.2695H260.082V10.5H267.383V10.3359C267.352 9.77344 267.234 9.22656 267.031 8.69531C266.836 8.16406 266.523 7.72656 266.094 7.38281C265.664 7.03906 265.078 6.86719 264.336 6.86719C263.844 6.86719 263.391 6.97266 262.977 7.18359C262.562 7.38672 262.207 7.69141 261.91 8.09766C261.613 8.50391 261.383 9 261.219 9.58594C261.055 10.1719 260.973 10.8477 260.973 11.6133V12.1055C260.973 12.707 261.055 13.2734 261.219 13.8047C261.391 14.3281 261.637 14.7891 261.957 15.1875C262.285 15.5859 262.68 15.8984 263.141 16.125C263.609 16.3516 264.141 16.4648 264.734 16.4648C265.5 16.4648 266.148 16.3086 266.68 15.9961C267.211 15.6836 267.676 15.2656 268.074 14.7422L269.387 15.7852C269.113 16.1992 268.766 16.5938 268.344 16.9688C267.922 17.3438 267.402 17.6484 266.785 17.8828C266.176 18.1172 265.453 18.2344 264.617 18.2344ZM279.559 15.832V9.30469C279.559 8.80469 279.457 8.37109 279.254 8.00391C279.059 7.62891 278.762 7.33984 278.363 7.13672C277.965 6.93359 277.473 6.83203 276.887 6.83203C276.34 6.83203 275.859 6.92578 275.445 7.11328C275.039 7.30078 274.719 7.54688 274.484 7.85156C274.258 8.15625 274.145 8.48438 274.145 8.83594H271.977C271.977 8.38281 272.094 7.93359 272.328 7.48828C272.562 7.04297 272.898 6.64062 273.336 6.28125C273.781 5.91406 274.312 5.625 274.93 5.41406C275.555 5.19531 276.25 5.08594 277.016 5.08594C277.938 5.08594 278.75 5.24219 279.453 5.55469C280.164 5.86719 280.719 6.33984 281.117 6.97266C281.523 7.59766 281.727 8.38281 281.727 9.32812V15.2344C281.727 15.6562 281.762 16.1055 281.832 16.582C281.91 17.0586 282.023 17.4688 282.172 17.8125V18H279.91C279.801 17.75 279.715 17.418 279.652 17.0039C279.59 16.582 279.559 16.1914 279.559 15.832ZM279.934 10.3125L279.957 11.8359H277.766C277.148 11.8359 276.598 11.8867 276.113 11.9883C275.629 12.082 275.223 12.2266 274.895 12.4219C274.566 12.6172 274.316 12.8633 274.145 13.1602C273.973 13.4492 273.887 13.7891 273.887 14.1797C273.887 14.5781 273.977 14.9414 274.156 15.2695C274.336 15.5977 274.605 15.8594 274.965 16.0547C275.332 16.2422 275.781 16.3359 276.312 16.3359C276.977 16.3359 277.562 16.1953 278.07 15.9141C278.578 15.6328 278.98 15.2891 279.277 14.8828C279.582 14.4766 279.746 14.082 279.77 13.6992L280.695 14.7422C280.641 15.0703 280.492 15.4336 280.25 15.832C280.008 16.2305 279.684 16.6133 279.277 16.9805C278.879 17.3398 278.402 17.6406 277.848 17.8828C277.301 18.1172 276.684 18.2344 275.996 18.2344C275.137 18.2344 274.383 18.0664 273.734 17.7305C273.094 17.3945 272.594 16.9453 272.234 16.3828C271.883 15.8125 271.707 15.1758 271.707 14.4727C271.707 13.793 271.84 13.1953 272.105 12.6797C272.371 12.1562 272.754 11.7227 273.254 11.3789C273.754 11.0273 274.355 10.7617 275.059 10.582C275.762 10.4023 276.547 10.3125 277.414 10.3125H279.934ZM287.305 7.3125V18H285.137V5.32031H287.246L287.305 7.3125ZM291.266 5.25L291.254 7.26562C291.074 7.22656 290.902 7.20312 290.738 7.19531C290.582 7.17969 290.402 7.17188 290.199 7.17188C289.699 7.17188 289.258 7.25 288.875 7.40625C288.492 7.5625 288.168 7.78125 287.902 8.0625C287.637 8.34375 287.426 8.67969 287.27 9.07031C287.121 9.45312 287.023 9.875 286.977 10.3359L286.367 10.6875C286.367 9.92188 286.441 9.20312 286.59 8.53125C286.746 7.85938 286.984 7.26562 287.305 6.75C287.625 6.22656 288.031 5.82031 288.523 5.53125C289.023 5.23438 289.617 5.08594 290.305 5.08594C290.461 5.08594 290.641 5.10547 290.844 5.14453C291.047 5.17578 291.188 5.21094 291.266 5.25Z" fill="#2D1E1E"/>
</svg>
